<svg xmlns="http://www.w3.org/2000/svg" version="1.1" xmlns:xlink="http://www.w3.org/1999/xlink" xmlns:svgjs="http://svgjs.dev/svgjs" width="1000" height="1000" viewBox="0 0 1000 1000"><rect width="1000" height="1000" fill="#333366"></rect><g transform="matrix(0.7,0,0,0.7,149.57575757575756,431.76586501116014)"><svg viewBox="0 0 396 77" data-background-color="#333366" preserveAspectRatio="xMidYMid meet" height="194" width="1000" xmlns="http://www.w3.org/2000/svg" xmlns:xlink="http://www.w3.org/1999/xlink"><g id="tight-bounds" transform="matrix(1,0,0,1,0.2400000000000091,0.18945798336281428)"><svg viewBox="0 0 395.52 76.62093584066137" height="76.62093584066137" width="395.52"><g><svg viewBox="0 0 515.8928420124411 99.93980670634026" height="76.62093584066137" width="395.52"><g transform="matrix(1,0,0,1,120.37284201244105,28.331707066697987)"><svg viewBox="0 0 395.52 43.27639257294429" height="43.27639257294429" width="395.52"><g id="textblocktransform"><svg viewBox="0 0 395.52 43.27639257294429" height="43.27639257294429" width="395.52" id="textblock"><g><svg viewBox="0 0 395.52 43.27639257294429" height="43.27639257294429" width="395.52"><g transform="matrix(1,0,0,1,0,0)"><svg width="395.52" viewBox="1 -33 300.1300048828125 33" height="43.27639257294429" data-palette-color="#ffffff"><g class="wordmark-text-0" data-fill-palette-color="primary" id="text-0"><path d="M1-33L33.3-33 33.3-24.45 23-24.45 23 0 11.35 0 11.35-24.45 1-24.45 1-33ZM36.8-33L54.7-33Q61.15-33 64.6-30.13 68.05-27.25 68.05-22.5L68.05-22.5Q68.05-17.05 64.67-14.3 61.3-11.55 54.85-11.55L54.85-11.55 53.7-10.95 48.2-10.95 48.2 0 36.8 0 36.8-33ZM48.2-18.6L52.7-18.6Q54.55-18.6 55.47-19.28 56.4-19.95 56.4-21.65L56.4-21.65Q56.4-23.3 55.47-24 54.55-24.7 52.7-24.7L52.7-24.7 48.2-24.7 48.2-18.6ZM49.55-14.45L59.6-16.15 69.9 0 57.25 0 49.55-14.45ZM72.05-33L83.7-33 83.7 0 72.05 0 72.05-33ZM88.69-33L106.19-33Q110.64-33 113.74-31.65 116.84-30.3 118.44-27.7 120.04-25.1 120.04-21.35L120.04-21.35Q120.04-17.6 118.44-15 116.84-12.4 113.74-11.05 110.64-9.7 106.19-9.7L106.19-9.7 100.34-9.7 100.34 0 88.69 0 88.69-33ZM100.34-17.95L104.29-17.95Q106.19-17.95 107.29-18.78 108.39-19.6 108.39-21.35L108.39-21.35Q108.39-23.1 107.29-23.93 106.19-24.75 104.29-24.75L104.29-24.75 100.34-24.75 100.34-17.95Z" fill="#ffffff" data-fill-palette-color="primary"></path><path d="M133.54-33L165.84-33 165.84-24.45 155.54-24.45 155.54 0 143.89 0 143.89-24.45 133.54-24.45 133.54-33ZM169.34-33L187.24-33Q193.69-33 197.14-30.13 200.59-27.25 200.59-22.5L200.59-22.5Q200.59-17.05 197.21-14.3 193.84-11.55 187.39-11.55L187.39-11.55 186.24-10.95 180.74-10.95 180.74 0 169.34 0 169.34-33ZM180.74-18.6L185.24-18.6Q187.09-18.6 188.01-19.28 188.94-19.95 188.94-21.65L188.94-21.65Q188.94-23.3 188.01-24 187.09-24.7 185.24-24.7L185.24-24.7 180.74-24.7 180.74-18.6ZM182.09-14.45L192.14-16.15 202.44 0 189.79 0 182.09-14.45ZM232.58 0L204.58 0 204.58-33 231.98-33 231.98-24.45 216.23-24.45 216.23-20.35 228.93-20.35 228.93-12.45 216.23-12.45 216.23-8.55 232.58-8.55 232.58 0ZM244.48 0L232.88 0 243.58-33 257.58-33 268.33 0 256.43 0 251.93-18.95 250.58-24.55 250.43-24.55 249.13-18.95 244.48 0ZM260.08-6.3L241.23-6.3 241.23-13.55 260.08-13.55 260.08-6.3ZM268.83-33L301.13-33 301.13-24.45 290.83-24.45 290.83 0 279.18 0 279.18-24.45 268.83-24.45 268.83-33Z" fill="#ff6699" data-fill-palette-color="secondary"></path></g></svg></g></svg></g></svg></g></svg></g><g><svg viewBox="0 0 99.93980670634026 99.93980670634026" height="99.93980670634026" width="99.93980670634026"><g><svg></svg></g><g id="icon-0"><svg viewBox="0 0 99.93980670634026 99.93980670634026" height="99.93980670634026" width="99.93980670634026"><g><path d="M0 49.97c0-27.598 22.372-49.97 49.97-49.97 27.598 0 49.97 22.372 49.97 49.97 0 27.598-22.372 49.97-49.97 49.97-27.598 0-49.97-22.372-49.97-49.97zM49.97 96.037c25.442 0 46.067-20.625 46.067-46.067 0-25.442-20.625-46.067-46.067-46.067-25.442 0-46.067 20.625-46.067 46.067 0 25.442 20.625 46.067 46.067 46.067z" data-fill-palette-color="accent" fill="#ffffff" stroke="transparent"></path></g><g transform="matrix(1,0,0,1,34.85489393919721,26.037431971046736)"><svg viewBox="0 0 30.230018827945845 47.86494276424679" height="47.86494276424679" width="30.230018827945845"><g><svg xmlns="http://www.w3.org/2000/svg" xmlns:xlink="http://www.w3.org/1999/xlink" version="1.1" x="0" y="0" viewBox="23.43499755859375 7.938000679016113 53.13011932373047 84.1240005493164" enable-background="new 0 0 100 100" xml:space="preserve" height="47.86494276424679" width="30.230018827945845" class="icon-s-0" data-fill-palette-color="accent" id="s-0"><path d="M76.504 26.621c-0.428-4.039-2.421-7.264-5.613-9.078-2.238-1.273-4.937-1.744-7.218-1.342-1.681-2.555-4.412-4.133-7.34-4.133-1.432 0-2.821 0.369-4.072 1.063-2.292-3.26-6.655-5.193-10.191-5.193-3.956 0-7.808 1.697-10.304 4.537-1.937 2.205-2.924 4.924-2.901 7.939-3.193 1.324-5.43 4.721-5.43 8.586 0 3.764 2.121 7.559 4.939 9.166l4.771 52.078c0.094 1.029 0.957 1.818 1.991 1.818h28.313c1.034 0 1.897-0.789 1.991-1.818l4.84-52.84C73.212 35.859 77.1 32.264 76.504 26.621zM61.624 88.063H36.961l-4.713-51.449c0-0.002 0-0.002 0-0.004l-0.095-1.029h3.354v6.119c0 3.441 2.799 6.24 6.238 6.24 3.44 0 6.24-2.799 6.24-6.24V35.58h18.444L61.624 88.063zM70.309 32.514c-0.063-0.098-0.129-0.195-0.209-0.283-0.379-0.414-0.915-0.65-1.478-0.65H45.986c-1.104 0-2 0.895-2 2v8.119c0 1.234-1.005 2.24-2.24 2.24-1.234 0-2.238-1.006-2.238-2.24V33.58c0-1.105-0.896-2-2-2h-7.546c-0.563 0-1.099 0.236-1.478 0.65-0.058 0.064-0.103 0.137-0.151 0.207-0.545-1.039-0.898-2.262-0.898-3.438 0-2.598 1.647-4.803 3.833-5.133 1.076-0.162 1.825-1.156 1.685-2.236-0.334-2.57 0.278-4.762 1.819-6.516 1.721-1.961 4.518-3.178 7.298-3.178 2.881 0 6.704 1.98 7.585 4.822 0.209 0.676 0.759 1.191 1.447 1.354 0.686 0.166 1.411-0.047 1.901-0.557 0.927-0.959 2.109-1.488 3.33-1.488 1.918 0 3.646 1.262 4.512 3.293 0.212 0.498 0.615 0.887 1.119 1.082 0.505 0.193 1.066 0.176 1.557-0.049 1.151-0.529 3.431-0.49 5.394 0.625 1.443 0.822 3.242 2.533 3.611 6.021C72.778 29.432 71.64 31.273 70.309 32.514z" fill="#ffffff" data-fill-palette-color="accent"></path></svg></g></svg></g></svg></g></svg></g></svg></g><defs></defs></svg><rect width="395.52" height="76.62093584066137" fill="none" stroke="none" visibility="hidden"></rect></g></svg></g></svg>